<mxfile host="www.draw.io" modified="2020-02-29T03:51:40.370Z" agent="Mozilla/5.0 (Macintosh; Intel Mac OS X 10_15_3) AppleWebKit/537.36 (KHTML, like Gecko) Chrome/80.0.3987.122 Safari/537.36" etag="WRGhPxuuZnHYxoQk28KX" version="12.7.9" type="github">
  <diagram id="-ds27dt1GGWGcAtzls7E" name="Page-1">
    <mxGraphModel dx="1139" dy="741" grid="1" gridSize="10" guides="1" tooltips="1" connect="1" arrows="1" fold="1" page="1" pageScale="1" pageWidth="827" pageHeight="1169" math="0" shadow="0">
      <root>
        <mxCell id="0" />
        <mxCell id="1" parent="0" />
        <mxCell id="ZrfAx98OF5Xd-yIAF1lx-3" value="" style="rounded=0;whiteSpace=wrap;html=1;strokeColor=#E6E6E6;" vertex="1" parent="1">
          <mxGeometry x="30" y="40" width="1080" height="600" as="geometry" />
        </mxCell>
        <mxCell id="ZrfAx98OF5Xd-yIAF1lx-4" value="" style="endArrow=none;html=1;exitX=0.001;exitY=0.067;exitDx=0;exitDy=0;exitPerimeter=0;entryX=1.002;entryY=0.062;entryDx=0;entryDy=0;entryPerimeter=0;strokeColor=#E6E6E6;" edge="1" parent="1">
          <mxGeometry width="50" height="50" relative="1" as="geometry">
            <mxPoint x="31.079999999999927" y="85.20000000000005" as="sourcePoint" />
            <mxPoint x="1112.1599999999999" y="82.20000000000005" as="targetPoint" />
          </mxGeometry>
        </mxCell>
        <mxCell id="ZrfAx98OF5Xd-yIAF1lx-5" value="&lt;font color=&quot;#67ab9f&quot;&gt;WeRide App&lt;/font&gt;" style="text;html=1;strokeColor=none;fillColor=none;align=center;verticalAlign=middle;whiteSpace=wrap;rounded=0;" vertex="1" parent="1">
          <mxGeometry x="50" y="50" width="80" height="20" as="geometry" />
        </mxCell>
        <mxCell id="ZrfAx98OF5Xd-yIAF1lx-7" value="" style="shape=image;verticalLabelPosition=bottom;labelBackgroundColor=#ffffff;verticalAlign=top;aspect=fixed;imageAspect=0;image=data:image/png,iVBORw0KGgoAAAANSUhEUgAAAGcAAAAzCAYAAACKXhYYAAAHgklEQVR4Ae2aaW8TRxjH+7Wqio8BoRBIOUp4WdRXrdqq9KRSQVyVuMPRhEIuQlJKKYSAj9hx7ByQG4ccpE7iBickPojX/lf/CROtV2t7Tbz2Qnak0ZyenX1+fo4Z+wPYybIS+MCyO7M3BhuOhb8ENhwbjoUlYOGt2ZpjwzEmgainH7O/1CC4/UsMbzmA4S3Vos4+jm22ZAnNSYxNYerQUQx9uD9n5hzO3Syp7HBWOvuEluQDI8epUZtFi8oKJzE2ieGPDuTUFglFXRLQZtCgssKZ+uzXrGAWb3cI6zWx7zvdOdOHjr731q1scGjO1Nqgrse6B5BOKmtw9n+fdd77bt7KBid05FJOoU/sOQwoCiZywGEUV8y0sLCAYDCI3t5eeDweuFwukb1eL/r6+sQY55QqlQ1OsOKLrHCkFuWDw5B7o0lRFExOToIAJAxt6XQ6oc4ENzExAX7WzFQ2OEYCgXxwGBhsJM3NzWVoiBZKvjaBcg2z0jsOp/qt5ULzlU341JJsY3r9XMuMVDY4we3lM2vDw8MZZkptsmSdENxu93pmW47plVyz2KlscGZzBARGfc7bBAS5NEZqhc/nA4VNv8I8MjIC9snxbGWxNaikcIbGgrhQVy++YLlC6Qw4Wc45nFNoKE3/kE2w7JeOPhaLIZVKrWc6/ng8njdw4BrF9EElgROLx3Gn3YFj567ghxNncLW+BUNj44bu0yQobVnoIZQCzhWRcezly5dQkoqAkk6nITO/TaxzjUgkgq6urqyQuU6xojjT4SQSr3G6pk5AIRh17mlrL+heTQLibXWh1zcMl/W0hv6DvmVqakoIVWqMnv9IKSmkFAUzMzPiM/ys3pp8VjGS6XAedfoygKjhHPntApacgYIAEUyh5oyCyqU1PT09wmxJTWGpl+T46uoq+vv7RYCgB4fPKkYyHU5d859Z4RDUdGhWaIGRnwxoygrVGAqJp3o9Ico+On1qDFM2MGphc+709HTONYtxk2A6nPO19TnhjASfr783NcKMH9vyRWh04kagrG8UQDgcFnAcDocupGJEbqbDkUGA2pyp64H+QfU7m1LnvZjUEr2SgpYmSw+SekzWqRn0Vdn8Dp+50WQqnMjiUk6tIaTWfx5u9B3yfj6bv5GCpYOnqZKC1y4o+2XJuaFQKAN4h8uJBk87vvK1ospXj6+72zD8ag6JVFK7nOG2qXA8gb68cI6du4zkm58HDO+6wIl62iL7CIgHToa/Uvj5Ss4dHR1dM2tOJ9rcHfi2qw37fPXYdv/ieq72N+H0MxdmYotIpdd8WiFbNw1OPJ7A8QtX88Kh9ri7ewrZc8FzJQhtSTD0GdSsyMtIRihN7dDL8qzj7erCHVcHTnnvYn9XPT5+fA0VDy6h0nsTVf4GUbK9w/E7COn2zFPMJ1aQhn4kqPdSpsBJKgr+aPnLEBjC+fn0eTyfeqG3v6L05TJr0qHTRzBEVps3rQZxLJlM4smTJ7jrfoTPu1uww1GLrQ8uotJ7Q0DZHWiEzGuQbghN2umsxeGhB1hIRA2/kylwqDWna2oz4Px44gyY1cGArP908iw6A72GN13oxFwBgfQ71CqeXVZWVrKat2g0ioGBAWHOrnnuo8p7ExUPL2N3dwP29t5GVc+tdTAEVNXThH19rWKc8/b66uFZMH5ANQWOnvAeuX24fuuOgMPDZyye0JtmSt/4+HiG89aaN7Y7OzsxODgormeoMUxazeHVDedw7lnvPaE1Oz3UmGbMJaJYeB3DsaBXAPpmpAOh+LLoO/j0Ljhvl7MO92ZHDb9jyeAsr0Rxt92BmhtN6BkYMrzBYkzMdwjljfP8/Ly4V8t2L0ZQHKNZY+h90d8u4Ehz9mhhCql0GrOJGPYEWvBkOSza3YuzQnM4z7JwiiHkjayRze/w/wKLkcWMYED7HIJR+yJCapnoR6WjVviaTwKNODnmxuuUAiWdxrXQKBzhCaymFJwJesFxG45Wqqq23sVnIBAQPoYXmmoTpvqYqKrHZP3v0Ajo5Cl0+pdPe1swHX8lYrGEouD4uA/+xVlU97aKcRuOVqqqNr/tau2h36B5opmSWqGarluVYFjSd+x01glfQji7/A04MubF6ps7uvvhSewJ3FqP4Cztc3TftsSd6h/beIgkMKk1RraihuP5b1JEXxUdVwSYKn8j9vqbcCc0inhKQfO/w9gXaBJaQ3CctxatGf+vd8kCAiMvX4o5vJCk1iwtLeV9HGFIrWJdJtbD8WVxbql0Xce29hpUdvHw2Sic/26auu4G0Wb/Vh5OXddxeOg+wokVuUzectPBoUTkD2v5pJMLDrVuPr6MlpmnqPY3Y4ezFtseXhY3A9QU3hSwzf6D/mZxQxCOr52h8j1Xjm9KOHx5tSZIYWhLLRy2tTmZUvAiGsGpZy4cDDSLQyk1iYdOti15t6Z90XexbQSOfC/ePvMW+ujYY1R1N4rS0rfScuPvaqmFI9+D/aVIm9asGRGuFk6poMi92XCkJCxY2nAsCEVuyYYjJWHB0oZjQShySzYcKQkLljYcC0KRW7LhSElYsLThWBCK3JINR0rCguX//EBP5+B3xdUAAAAASUVORK5CYII=;" vertex="1" parent="1">
          <mxGeometry x="1040" y="44.410000000000004" width="63" height="31.19" as="geometry" />
        </mxCell>
        <mxCell id="ZrfAx98OF5Xd-yIAF1lx-8" value="&lt;font color=&quot;#67ab9f&quot;&gt;控制台&lt;/font&gt;" style="text;html=1;strokeColor=none;fillColor=none;align=center;verticalAlign=middle;whiteSpace=wrap;rounded=0;" vertex="1" parent="1">
          <mxGeometry x="180" y="50" width="40" height="20" as="geometry" />
        </mxCell>
        <mxCell id="ZrfAx98OF5Xd-yIAF1lx-9" value="内测分发" style="text;html=1;strokeColor=none;fillColor=none;align=center;verticalAlign=middle;whiteSpace=wrap;rounded=0;rotation=0;" vertex="1" parent="1">
          <mxGeometry x="250" y="50" width="60" height="20" as="geometry" />
        </mxCell>
        <mxCell id="ZrfAx98OF5Xd-yIAF1lx-10" value="" style="endArrow=none;html=1;strokeColor=#67AB9F;strokeWidth=2;" edge="1" parent="1">
          <mxGeometry width="50" height="50" relative="1" as="geometry">
            <mxPoint x="180" y="84" as="sourcePoint" />
            <mxPoint x="220" y="84" as="targetPoint" />
          </mxGeometry>
        </mxCell>
      </root>
    </mxGraphModel>
  </diagram>
</mxfile>
